<svg xmlns="http://www.w3.org/2000/svg" viewBox="0 0 64 64">
  <defs>
    <linearGradient id="gold" x1="0%" y1="0%" x2="100%" y2="100%">
      <stop offset="0%" style="stop-color:#d4a853"/>
      <stop offset="50%" style="stop-color:#f0d48a"/>
      <stop offset="100%" style="stop-color:#d4a853"/>
    </linearGradient>
  </defs>
  <rect width="64" height="64" rx="14" fill="#0a0e1a"/>
  <!-- Hotel building -->
  <rect x="18" y="20" width="28" height="30" rx="2" fill="none" stroke="url(#gold)" stroke-width="2.5"/>
  <rect x="28" y="40" width="8" height="10" rx="1" fill="url(#gold)" opacity="0.7"/>
  <!-- Windows -->
  <rect x="23" y="25" width="5" height="4" rx="0.8" fill="url(#gold)" opacity="0.5"/>
  <rect x="36" y="25" width="5" height="4" rx="0.8" fill="url(#gold)" opacity="0.5"/>
  <rect x="23" y="33" width="5" height="4" rx="0.8" fill="url(#gold)" opacity="0.5"/>
  <rect x="36" y="33" width="5" height="4" rx="0.8" fill="url(#gold)" opacity="0.5"/>
  <!-- AI signal waves -->
  <path d="M13 28 Q10 32 13 36" fill="none" stroke="url(#gold)" stroke-width="1.8" stroke-linecap="round" opacity="0.6"/>
  <path d="M9 25 Q4 32 9 39" fill="none" stroke="url(#gold)" stroke-width="1.8" stroke-linecap="round" opacity="0.35"/>
  <path d="M51 28 Q54 32 51 36" fill="none" stroke="url(#gold)" stroke-width="1.8" stroke-linecap="round" opacity="0.6"/>
  <path d="M55 25 Q60 32 55 39" fill="none" stroke="url(#gold)" stroke-width="1.8" stroke-linecap="round" opacity="0.35"/>
  <!-- Top antenna/AI dot -->
  <line x1="32" y1="14" x2="32" y2="20" stroke="url(#gold)" stroke-width="2" stroke-linecap="round"/>
  <circle cx="32" cy="12" r="2.5" fill="url(#gold)"/>
</svg>